<svg width="124" height="69" viewBox="0 0 124 69" fill="none" xmlns="http://www.w3.org/2000/svg">
<path d="M28.7 11.25V21.65H22.85L21.6 14.75H18.75L19.85 23.15V41.1H24.05V43H4.9V41.1H9.1V23.15L10.2 14.75H7.35L6.1 21.95H0.25V11.25H28.7ZM30.4551 43V41.1H32.6551V13.15H30.4551V11.25H55.7551V21.95H49.9051L47.8551 14.25H43.4051V26.05H52.9551V28.8H43.4051V40H47.8551L49.9051 32.3H55.7551V43H30.4551ZM75.7695 40.15V31.05H86.5195V31.65C86.5195 35.4167 85.8862 38.1333 84.6195 39.8C83.9195 40.6667 83.1862 41.3667 82.4195 41.9C81.6529 42.4333 80.6529 42.8333 79.4195 43.1C77.4195 43.5333 75.3862 43.75 73.3195 43.75C71.2862 43.75 70.0029 43.7333 69.4695 43.7C68.9695 43.7 68.2529 43.6667 67.3195 43.6C66.4195 43.5333 65.7195 43.4167 65.2195 43.25C64.7529 43.0833 64.1529 42.85 63.4195 42.55C62.6862 42.2167 62.1195 41.8333 61.7195 41.4C61.3529 40.9333 60.9195 40.35 60.4195 39.65C59.9529 38.95 59.6029 38.1333 59.3695 37.2C58.8029 35 58.5195 32.5667 58.5195 29.9V24.3C58.5195 21.6667 58.8195 19.2333 59.4195 17C59.8195 15.6333 60.6862 14.2667 62.0195 12.9C62.6195 12.2333 63.8862 11.6 65.8195 11C66.8195 10.6667 68.6362 10.5 71.2695 10.5C73.9029 10.5 75.7195 10.55 76.7195 10.65C77.7529 10.7167 78.8362 10.8833 79.9695 11.15C81.1029 11.4167 82.0195 11.8167 82.7195 12.35C83.4529 12.8833 84.1195 13.6 84.7195 14.5C85.9195 16.1667 86.5195 18.8667 86.5195 22.6V23.55H75.7695V14.05H69.2695V40.15H75.7695ZM101.462 43H88.5117V41.1H90.7117V13.15H88.5117V11.25H101.462V26.05H108.962V11.25H121.912V13.15H119.712V41.1H121.912V43H108.962V28.8H101.462V43Z" fill="#F7F7F7"/>
<path d="M15.628 51.03V55.606H13.054L12.504 52.57H11.25L11.734 56.266V64.164H13.582V65H5.156V64.164H7.004V56.266L7.488 52.57H6.234L5.684 55.738H3.11V51.03H15.628ZM22.0982 65H16.4002V64.164H17.3682V51.866H16.4002V51.03H24.1442C25.6109 51.03 26.5276 51.0667 26.8942 51.14C27.2609 51.2133 27.6056 51.3013 27.9282 51.404C28.2509 51.492 28.5002 51.6093 28.6762 51.756C28.8669 51.888 29.0649 52.0567 29.2702 52.262C29.4756 52.4673 29.6296 52.7093 29.7322 52.988C29.9962 53.6187 30.1282 54.3447 30.1282 55.166C30.1282 56.5007 29.8496 57.4687 29.2922 58.07C28.7349 58.6713 27.9356 59.0527 26.8942 59.214V59.72H27.8842C28.3829 59.72 28.7276 59.8153 28.9182 60.006C29.1089 60.182 29.2336 60.5267 29.2922 61.04L29.6662 64.164H30.8322V65H25.3982V60.38H22.0982V65ZM25.3982 58.796V52.57H22.0982V58.796H25.3982ZM31.2674 65V64.164H32.2354V51.866H31.2674V51.03H42.3994V55.738H39.8254L38.9234 52.35H36.9654V57.542H41.1674V58.752H36.9654V63.68H38.9234L39.8254 60.292H42.3994V65H31.2674ZM44.0778 51.866V51.03H54.0218L56.0458 64.164H56.9698V65H42.6258V64.164H43.5278L45.4418 51.866H44.0778ZM47.4878 52.35V60.49H50.1718L49.4458 52.35H47.4878ZM47.4878 65H50.5898L50.2818 61.7H47.4878V65ZM56.7402 64.582L57.3342 60.622H60.1502L60.8322 63.438H63.2742V61.788L58.9402 58.576C58.2948 58.1067 57.8182 57.5493 57.5102 56.904C57.2022 56.2587 57.0482 55.5547 57.0482 54.792C57.0482 54.0147 57.1142 53.4207 57.2462 53.01C57.3928 52.5847 57.6055 52.24 57.8842 51.976C58.1628 51.6973 58.4635 51.47 58.7862 51.294C59.1088 51.118 59.5048 50.986 59.9742 50.898C60.7808 50.7513 61.8735 50.678 63.2522 50.678C64.6308 50.678 66.1782 50.9273 67.8942 51.426L67.3002 55.386H64.7482L64.1542 52.57H61.9542V54.22L66.2882 57.432C66.9335 57.9013 67.4102 58.4587 67.7182 59.104C68.0262 59.7493 68.1802 60.4827 68.1802 61.304C68.1802 62.1253 68.0702 62.778 67.8502 63.262C67.6302 63.7313 67.3515 64.098 67.0142 64.362C66.6915 64.626 66.2588 64.8313 65.7162 64.978C64.8508 65.2127 63.6042 65.33 61.9762 65.33C60.3482 65.33 58.6028 65.0807 56.7402 64.582ZM74.6413 63.746H77.9413V51.03H82.6493V51.866H81.6813V59.852C81.6813 60.864 81.5933 61.6927 81.4173 62.338C81.2559 62.9687 81.0726 63.4233 80.8673 63.702C80.6619 63.9807 80.4713 64.2153 80.2953 64.406C80.1339 64.582 79.8919 64.736 79.5693 64.868C79.2613 64.9853 79.0046 65.0733 78.7993 65.132C78.5939 65.1907 78.2933 65.2347 77.8973 65.264C74.1866 65.5427 71.8839 65.1687 70.9893 64.142C70.6813 63.7753 70.4026 63.2327 70.1533 62.514C69.9186 61.7953 69.8013 60.908 69.8013 59.852V51.866H68.8333V51.03H74.6413V63.746ZM89.2369 65H83.5389V64.164H84.5069V51.866H83.5389V51.03H91.2829C92.7496 51.03 93.6662 51.0667 94.0329 51.14C94.3996 51.2133 94.7442 51.3013 95.0669 51.404C95.3896 51.492 95.6389 51.6093 95.8149 51.756C96.0056 51.888 96.2036 52.0567 96.4089 52.262C96.6142 52.4673 96.7682 52.7093 96.8709 52.988C97.1349 53.6187 97.2669 54.3447 97.2669 55.166C97.2669 56.5007 96.9882 57.4687 96.4309 58.07C95.8736 58.6713 95.0742 59.0527 94.0329 59.214V59.72H95.0229C95.5216 59.72 95.8662 59.8153 96.0569 60.006C96.2476 60.182 96.3722 60.5267 96.4309 61.04L96.8049 64.164H97.9709V65H92.5369V60.38H89.2369V65ZM92.5369 58.796V52.57H89.2369V58.796H92.5369ZM98.4061 65V64.164H99.3741V51.866H98.4061V51.03H109.538V55.738H106.964L106.062 52.35H104.104V57.542H108.306V58.752H104.104V63.68H106.062L106.964 60.292H109.538V65H98.4061ZM110.644 64.582L111.238 60.622H114.054L114.736 63.438H117.178V61.788L112.844 58.576C112.199 58.1067 111.722 57.5493 111.414 56.904C111.106 56.2587 110.952 55.5547 110.952 54.792C110.952 54.0147 111.018 53.4207 111.15 53.01C111.297 52.5847 111.51 52.24 111.788 51.976C112.067 51.6973 112.368 51.47 112.69 51.294C113.013 51.118 113.409 50.986 113.878 50.898C114.685 50.7513 115.778 50.678 117.156 50.678C118.535 50.678 120.082 50.9273 121.798 51.426L121.204 55.386H118.652L118.058 52.57H115.858V54.22L120.192 57.432C120.838 57.9013 121.314 58.4587 121.622 59.104C121.93 59.7493 122.084 60.4827 122.084 61.304C122.084 62.1253 121.974 62.778 121.754 63.262C121.534 63.7313 121.256 64.098 120.918 64.362C120.596 64.626 120.163 64.8313 119.62 64.978C118.755 65.2127 117.508 65.33 115.88 65.33C114.252 65.33 112.507 65.0807 110.644 64.582Z" fill="#F7F7F7"/>
</svg>
